<?xml version="1.0" encoding="iso-8859-1"?>
<!-- Generator: Adobe Illustrator 19.0.0, SVG Export Plug-In . SVG Version: 6.00 Build 0)  -->
<svg version="1.1" id="Capa_1" xmlns="http://www.w3.org/2000/svg" xmlns:xlink="http://www.w3.org/1999/xlink" x="0px" y="0px"
	 viewBox="0 0 384 384" style="enable-background:new 0 0 384 384;" xml:space="preserve">
<g>
	<g>
		<g>
			<path d="M206.896,0.874c-3.958-1.688-8.458-0.885-11.563,2.042L85.479,106.665H10.667C4.771,106.665,0,111.436,0,117.332v149.333
				c0,5.896,4.771,10.667,10.667,10.667h74.813l109.854,103.75c2.021,1.917,4.667,2.917,7.333,2.917
				c1.417,0,2.854-0.281,4.229-0.875c3.896-1.677,6.438-5.531,6.438-9.792V10.665C213.333,6.405,210.792,2.551,206.896,0.874z"/>
			<path d="M262.452,132.214l-15.199,15.199c-3.505,3.505-4.44,9.168-1.513,13.168c6.449,8.819,10.26,19.682,10.26,31.418
				c0,11.736-3.811,22.599-10.26,31.417c-2.927,4-1.992,9.664,1.513,13.169l15.199,15.198c4.655,4.656,12.259,3.939,16.28-1.276
				c12.495-16.208,19.935-36.505,19.935-58.508c0-22.004-7.44-42.301-19.935-58.509
				C274.711,128.275,267.107,127.557,262.452,132.214z"/>
			<path d="M338.423,71.905c-4.01-4.53-11.151-4.512-15.428-0.234l-15.092,15.092c-4.043,4.042-4.005,10.395-0.27,14.721
				c20.991,24.307,33.701,55.954,33.701,90.514c0,34.56-12.71,66.207-33.701,90.516c-3.736,4.326-3.772,10.677,0.27,14.719
				l15.092,15.092c4.277,4.279,11.418,4.296,15.43-0.233C366.771,280.085,384,238.016,384,191.999
				C384,145.981,366.771,103.912,338.423,71.905z"/>
		</g>
	</g>
</g>
<g>
</g>
<g>
</g>
<g>
</g>
<g>
</g>
<g>
</g>
<g>
</g>
<g>
</g>
<g>
</g>
<g>
</g>
<g>
</g>
<g>
</g>
<g>
</g>
<g>
</g>
<g>
</g>
<g>
</g>
</svg>
